<svg width="218" height="81" viewBox="0 0 218 81" fill="none" xmlns="http://www.w3.org/2000/svg">
<path fill-rule="evenodd" clip-rule="evenodd" d="M130.213 55.0843C130.585 55.4071 130.879 55.8104 131.073 56.2638C131.267 56.7171 131.355 57.2087 131.332 57.7013C131.332 60.5254 129.701 61.9375 126.439 61.9377H98.4124C97.3772 62.0011 96.3592 61.6499 95.5824 60.9614C94.8056 60.2729 94.3336 59.3035 94.2703 58.2664C94.262 58.1334 94.2607 58.0001 94.2665 57.867C94.2679 57.1504 94.4158 56.4417 94.701 55.7846C94.9863 55.1274 95.4027 54.5357 95.9248 54.046L119.059 29.1241H101.149C99.9782 29.2075 98.8166 28.8688 97.8738 28.1691C97.4958 27.8329 97.1987 27.4153 97.0048 26.9476C96.8109 26.4799 96.7251 25.9743 96.754 25.4687C96.754 22.6995 98.3846 21.315 101.646 21.3152H128.43C128.991 21.2882 129.551 21.3818 130.073 21.5895C130.595 21.7973 131.067 22.1145 131.457 22.5198C132.19 23.2912 132.592 24.3204 132.576 25.3859C132.543 26.8519 131.949 28.2493 130.917 29.2897L107.865 54.1288H126.937C128.108 54.047 129.269 54.3858 130.213 55.0843" fill="white"/>
<path fill-rule="evenodd" clip-rule="evenodd" d="M171.756 42.5394C171.435 42.8576 171.052 43.1065 170.631 43.2707C170.211 43.4349 169.761 43.5111 169.309 43.4944H144.682C144.618 46.5606 145.731 49.5346 147.792 51.8021C148.883 52.7894 150.161 53.548 151.549 54.0333C152.938 54.5185 154.409 54.7205 155.877 54.6274C157.657 54.6482 159.43 54.4103 161.142 53.9209C162.788 53.4189 164.363 52.7068 165.827 51.8021C166.46 51.439 167.172 51.2393 167.9 51.2211C168.323 51.2024 168.744 51.2872 169.127 51.4681C169.51 51.649 169.843 51.9206 170.097 52.2595C170.635 52.9921 170.913 53.884 170.886 54.793C170.89 55.5766 170.703 56.3493 170.342 57.0442C169.981 57.7391 169.456 58.3353 168.812 58.7809C167.011 60.0345 165.004 60.9621 162.883 61.5215C160.391 62.2462 157.808 62.6098 155.213 62.6012C151.447 62.6893 147.716 61.8482 144.351 60.1518C141.332 58.5938 138.838 56.1814 137.178 53.2144C135.437 50.0063 134.565 46.3976 134.648 42.747C134.579 38.7352 135.46 34.764 137.219 31.1592C138.824 27.8719 141.325 25.1069 144.433 23.184C147.631 21.2448 151.31 20.251 155.047 20.3173C157.46 20.1687 159.877 20.5448 162.131 21.4196C164.385 22.2944 166.424 23.6474 168.108 25.3856C171.409 29.4483 173.053 34.6122 172.709 39.8396C172.74 40.3307 172.672 40.8231 172.508 41.287C172.344 41.751 172.088 42.177 171.756 42.5394L171.756 42.5394ZM145.014 37.9291H163.92C164.165 35.1893 163.398 32.4546 161.763 30.2444C160.977 29.3617 160.002 28.668 158.911 28.215C157.82 27.762 156.641 27.5614 155.462 27.628C149.602 27.628 146.119 31.0617 145.014 37.9291" fill="white"/>
<path fill-rule="evenodd" clip-rule="evenodd" d="M214.435 24.0155C216.986 27.0576 218.25 30.9769 217.959 34.9389C217.959 35.992 217.932 36.7953 217.877 37.3489L216.218 57.4515C216.199 58.1409 216.043 58.8195 215.758 59.4473C215.473 60.0752 215.066 60.6395 214.56 61.1069C213.501 62.0154 212.138 62.4903 210.745 62.437C210.066 62.4787 209.385 62.3824 208.744 62.1538C208.103 61.9252 207.514 61.5691 207.014 61.1069C206.56 60.6229 206.221 60.0434 206.02 59.411C205.819 58.7785 205.762 58.109 205.853 57.4515L207.512 37.7642C207.953 31.6161 205.52 28.5419 200.214 28.5417C198.899 28.4678 197.584 28.674 196.354 29.1467C195.125 29.6194 194.01 30.348 193.082 31.2842C191.245 33.4151 190.191 36.1124 190.097 38.9268L188.522 57.4515C188.503 58.1409 188.347 58.8195 188.062 59.4473C187.778 60.0752 187.37 60.6395 186.864 61.1069C185.805 62.0155 184.443 62.4904 183.049 62.437C182.376 62.4816 181.701 62.3865 181.066 62.1576C180.431 61.9287 179.85 61.571 179.359 61.1069C178.916 60.6148 178.581 60.0356 178.374 59.4062C178.167 58.7768 178.093 58.111 178.157 57.4515L180.811 25.2195C180.814 24.5577 180.965 23.9048 181.252 23.3085C181.538 22.7123 181.954 22.1875 182.469 21.7725C183.575 20.8952 184.956 20.4389 186.366 20.4843C187.001 20.4461 187.636 20.5368 188.235 20.7508C188.833 20.9648 189.382 21.2978 189.849 21.7298C190.266 22.1651 190.574 22.6936 190.747 23.2716C190.92 23.8496 190.953 24.4605 190.843 25.0539L190.761 26.6313C192.17 24.6163 194.086 23.0114 196.316 21.9802C198.757 20.8465 201.422 20.2784 204.112 20.3181C205.994 20.1844 207.884 20.4439 209.661 21.0804C211.438 21.7169 213.064 22.7164 214.435 24.0155" fill="white"/>
<path fill-rule="evenodd" clip-rule="evenodd" d="M77.0021 23.497C75.4424 21.0894 73.0559 19.3382 70.2942 18.5746C67.5324 17.8111 64.5872 18.0882 62.0157 19.3536C59.8555 20.4519 58.0949 22.2032 56.9832 24.3594C55.8716 26.5157 55.4651 28.9676 55.8215 31.3681C56.1779 33.7686 57.279 35.9959 58.9689 37.7347C60.6589 39.4735 62.852 40.6356 65.2377 41.0565C65.032 47.5615 62.2893 53.7264 57.5982 58.2285C52.9071 62.7306 46.6413 65.2111 40.1454 65.1376C33.6496 65.0642 27.4413 62.4427 22.8528 57.8357C18.2643 53.2286 15.6612 47.0032 15.6021 40.4953C15.5904 35.4773 17.1165 30.5766 19.9745 26.4556C22.8324 22.3345 26.8842 19.1918 31.5824 17.4521C32.4763 17.128 33.2219 16.4891 33.6802 15.6548C34.1386 14.8204 34.2782 13.8475 34.0732 12.9176L34.0452 12.794C33.9329 12.2936 33.92 11.776 34.0074 11.2707C34.0948 10.7653 34.2806 10.2822 34.5544 9.84881C34.8281 9.41544 35.1844 9.04034 35.6028 8.74491C36.0213 8.44948 36.4937 8.2395 36.9932 8.12699C37.1646 8.08861 37.3384 8.06158 37.5133 8.04608C38.4792 7.95753 39.4504 7.91296 40.4269 7.91232C41.6346 7.91259 42.8414 7.97893 44.0419 8.11106C44.5579 8.16759 45.0798 8.12174 45.5781 7.97615C46.0764 7.83057 46.5411 7.5881 46.9458 7.26257C47.3505 6.93703 47.6873 6.53482 47.9368 6.0789C48.1864 5.62298 48.3438 5.12228 48.4002 4.6054C48.4079 4.53341 48.4142 4.46206 48.4174 4.39071C48.4457 3.35226 48.0763 2.34233 47.3849 1.56809C46.6936 0.793849 45.7327 0.313992 44.6994 0.226963C36.5674 -0.639121 28.3644 0.986021 21.1735 4.88778C13.9826 8.78954 8.14192 14.7845 4.4227 22.081C0.703488 29.3775 -0.719394 37.6325 0.34192 45.7561C1.40323 53.8796 4.89884 61.4897 10.3672 67.5815C15.8355 73.6733 23.0195 77.9603 30.9705 79.8766C38.9215 81.7929 47.2657 81.2482 54.9013 78.3146C62.5369 75.381 69.1049 70.1963 73.738 63.4452C78.3711 56.694 80.8516 48.6939 80.8518 40.5011C80.8518 36.5418 80.0569 28.006 77.0022 23.497" fill="white"/>
<path fill-rule="evenodd" clip-rule="evenodd" d="M55.6741 3.07776C56.5023 3.0777 57.312 3.32369 58.0007 3.78465C58.6894 4.2456 59.2262 4.90083 59.5432 5.66743C59.8601 6.43403 59.9431 7.27757 59.7815 8.0914C59.62 8.90523 59.2211 9.65281 58.6355 10.2395C58.0498 10.8263 57.3036 11.2258 56.4913 11.3877C55.6789 11.5496 54.8369 11.4665 54.0717 11.1489C53.3065 10.8313 52.6525 10.2936 52.1924 9.60361C51.7323 8.91365 51.4867 8.10248 51.4868 7.2727C51.4869 6.16016 51.9281 5.09322 52.7133 4.30654C53.4986 3.51985 54.5636 3.07786 55.6741 3.07776Z" fill="white"/>
</svg>
